# xmcd CD database file
#
# Track frame offsets:
#	150
#	19650
#	39277
#	59917
#	78195
#	112751
#	128248
#	147763
#	204577
#	223726
#	266981
#	286167
#	306932
#	336809
#
# Disc length: 4787 seconds
#
# Revision: 0
# Processed by: cddbd v1.4PL0 Copyright (c) Steve Scherf et al.
# Submitted via: CDex 1.40Beta9
#
DISCID=cf12b10e
DTITLE=Garry Moore - Scars
DYEAR=1900
DGENRE=Blues
TTITLE0=When the Sun Goes Down
TTITLE1=Rectify
TTITLE2=Wasn't Born in Chicago
TTITLE3=Stand Up
TTITLE4=Just can't let You Go
TTITLE5=My Baby (She's so Good for Me)
TTITLE6=World of Confusion
TTITLE7=Ball and Chain
TTITLE8=World keep Turnin' Round
TTITLE9=Who Knows (What Tomorrow may Bring)
TTITLE10=Empty Rooms (Bonus Track)
TTITLE11=Run for Cover (Bonus Track)
TTITLE12=Wild Frontier (Bonus Track)
TTITLE13=Separate Ways (Bonus Track)
EXTD=ID3G: 0
EXTT0=
EXTT1=
EXTT2=
EXTT3=
EXTT4=
EXTT5=
EXTT6=
EXTT7=
EXTT8=
EXTT9=
EXTT10=
EXTT11=
EXTT12=
EXTT13=
PLAYORDER=
